<?xml version="1.0" encoding="UTF-8" standalone="no"?>
<!-- Created with Inkscape (http://www.inkscape.org/) -->

<svg
   width="973.50751"
   height="108.52808"
   viewBox="0 0 257.57385 28.71472"
   version="1.1"
   id="svg2484"
   sodipodi:docname="logo-arnold.svg"
   inkscape:version="1.2.2 (b0a8486541, 2022-12-01)"
   xmlns:inkscape="http://www.inkscape.org/namespaces/inkscape"
   xmlns:sodipodi="http://sodipodi.sourceforge.net/DTD/sodipodi-0.dtd"
   xmlns="http://www.w3.org/2000/svg"
   xmlns:svg="http://www.w3.org/2000/svg">
  <sodipodi:namedview
     id="namedview2486"
     pagecolor="#ffffff"
     bordercolor="#000000"
     borderopacity="0.25"
     inkscape:showpageshadow="2"
     inkscape:pageopacity="0.0"
     inkscape:pagecheckerboard="0"
     inkscape:deskcolor="#d1d1d1"
     inkscape:document-units="mm"
     showgrid="false"
     inkscape:zoom="0.74653479"
     inkscape:cx="-70.324921"
     inkscape:cy="-34.82758"
     inkscape:window-width="1920"
     inkscape:window-height="1008"
     inkscape:window-x="0"
     inkscape:window-y="0"
     inkscape:window-maximized="1"
     inkscape:current-layer="layer1" />
  <defs
     id="defs2481" />
  <g
     inkscape:label="Layer 1"
     inkscape:groupmode="layer"
     id="layer1"
     transform="translate(-18.239801,-65.01764)">
    <g
       id="g2969"
       transform="matrix(0.4996084,0,0,0.48171117,14.733471,9.9378354)">
      <path
         d="m 15.887816,143.21609 c 0,4.66365 -1.557335,13.3194 -1.557335,13.3194 0,0 -4.3821316,0 -4.8749296,0 -1.346116,0 -2.437394,-5.96263 -2.437394,-13.3194 0,-7.35539 1.091278,-13.31803 2.437394,-13.31803 0.7281856,0 4.8749296,0 4.8749296,0 0,0 1.557335,9.94095 1.557335,13.31803"
         style="fill:#ffffff;fill-opacity:1;fill-rule:nonzero;stroke:none;stroke-width:0.0140428"
         id="path1828" />
      <path
         d="m 14.330481,129.89806 c 0,0 -4.146744,0 -4.8749296,0 -1.346116,0 -2.437394,5.96264 -2.437394,13.31803 0,7.35677 1.091278,13.3194 2.437394,13.3194 0.492655,0 4.8749296,0 4.8749296,0 0,0 1.557335,-8.65575 1.557335,-13.3194 0,-3.37708 -1.557335,-13.31803 -1.557335,-13.31803 z m -1.181229,1.31829 c 0.40156,2.67932 1.371141,9.41694 1.371141,11.99974 0,3.5329 -0.939407,9.54518 -1.349547,12.00111 H 9.8715554 c -0.580461,-1.04249 -1.485975,-5.1518 -1.485975,-12.00111 0,-6.84794 0.905514,-10.95725 1.485975,-11.99974 h 3.2776966 v 0"
         style="fill:#231f20;fill-opacity:1;fill-rule:nonzero;stroke:none;stroke-width:0.0140428"
         id="path1830" />
      <path
         d="m 16.768018,143.21609 c 0,7.35677 -1.091279,13.3194 -2.437537,13.3194 -1.346115,0 -2.437394,-5.96263 -2.437394,-13.3194 0,-7.35539 1.091279,-13.31803 2.437394,-13.31803 1.346258,0 2.437537,5.96264 2.437537,13.31803"
         style="fill:#231f20;fill-opacity:1;fill-rule:nonzero;stroke:none;stroke-width:0.0140428"
         id="path1832" />
      <path
         d="m 9.5462164,133.93428 c -0.06235,0.27442 -0.1237,0.57227 -0.18319,0.89357 h 3.4211316 c 0.03461,-0.19995 0.06993,-0.39714 0.107111,-0.58744 0.02045,-0.1048 0.04133,-0.20546 0.06235,-0.30613 H 9.5462164"
         style="fill:#231f20;fill-opacity:1;fill-rule:nonzero;stroke:none;stroke-width:0.0140428"
         id="path1834" />
      <path
         d="m 13.038279,133.54404 c 0.169176,-0.74464 0.354512,-1.36931 0.561441,-1.87953 h -3.252527 c -0.203927,0.25511 -0.4594776,0.88667 -0.7078796,1.87953 h 3.3989656"
         style="fill:#231f20;fill-opacity:1;fill-rule:nonzero;stroke:none;stroke-width:0.0140428"
         id="path1836" />
      <path
         d="m 12.498574,149.58828 c -0.05906,-0.51711 -0.110972,-1.05215 -0.154875,-1.60512 H 8.8963974 c 0.04762,0.57089 0.103394,1.10317 0.164028,1.60512 h 3.4381486"
         style="fill:#231f20;fill-opacity:1;fill-rule:nonzero;stroke:none;stroke-width:0.0140428"
         id="path1838" />
      <path
         d="m 13.29283,153.8741 c -0.144294,-0.48954 -0.277432,-1.04664 -0.401561,-1.68234 -0.13271,-0.67845 -0.247973,-1.42309 -0.345931,-2.21462 H 9.1087614 c 0.2331,1.77335 0.5357,3.07785 0.818137,3.89696 H 13.29283"
         style="fill:#231f20;fill-opacity:1;fill-rule:nonzero;stroke:none;stroke-width:0.0140428"
         id="path1840" />
      <path
         d="m 10.074337,154.26434 c 0.09682,0.22891 0.18934,0.3999 0.272856,0.50332 h 3.252527 c -0.06378,-0.1572 -0.125273,-0.32543 -0.184906,-0.50332 h -3.340477"
         style="fill:#231f20;fill-opacity:1;fill-rule:nonzero;stroke:none;stroke-width:0.0140428"
         id="path1842" />
      <path
         d="m 22.451075,143.21609 c 0,6.01228 -2.007518,17.16947 -2.007518,17.16947 0,0 -5.649165,0 -6.284254,0 -1.735378,0 -3.14227,-7.68634 -3.14227,-17.16947 0,-9.48176 1.406892,-17.16948 3.14227,-17.16948 0.938548,0 6.284254,0 6.284254,0 0,0 2.007518,12.81609 2.007518,17.16948"
         style="fill:#ffffff;fill-opacity:1;fill-rule:nonzero;stroke:none;stroke-width:0.0140428"
         id="path1844" />
      <path
         d="m 20.443557,126.04661 c 0,0 -5.345706,0 -6.284254,0 -1.735378,0 -3.14227,7.68772 -3.14227,17.16948 0,9.48313 1.406892,17.16947 3.14227,17.16947 0.635089,0 6.284254,0 6.284254,0 0,0 2.007518,-11.15719 2.007518,-17.16947 0,-4.35339 -2.007518,-17.16948 -2.007518,-17.16948 z m -1.180657,1.31967 c 0.483217,3.20471 1.820752,12.38723 1.820752,15.84981 0,4.74225 -1.302355,12.91123 -1.798729,15.85118 h -4.815297 c -0.765225,-1.07008 -2.08517,-6.53904 -2.08517,-15.85118 0,-9.31214 1.319945,-14.77973 2.08517,-15.84981 H 19.2629 v 0"
         style="fill:#231f20;fill-opacity:1;fill-rule:nonzero;stroke:none;stroke-width:0.0140428"
         id="path1846" />
      <path
         d="m 23.585684,143.21609 c 0,9.48313 -1.40675,17.16947 -3.142127,17.16947 -1.735377,0 -3.142127,-7.68634 -3.142127,-17.16947 0,-9.48176 1.40675,-17.16948 3.142127,-17.16948 1.735377,0 3.142127,7.68772 3.142127,17.16948"
         style="fill:#231f20;fill-opacity:1;fill-rule:nonzero;stroke:none;stroke-width:0.0140428"
         id="path1848" />
      <path
         d="m 14.080936,130.98882 c -0.08037,0.36267 -0.159452,0.75429 -0.236246,1.17763 h 4.410304 c 0.04448,-0.26338 0.09009,-0.52262 0.138143,-0.77359 0.02631,-0.1379 0.05334,-0.27166 0.08037,-0.40404 h -4.392571"
         style="fill:#231f20;fill-opacity:1;fill-rule:nonzero;stroke:none;stroke-width:0.0140428"
         id="path1850" />
      <path
         d="m 18.58262,130.47584 c 0.218084,-0.98182 0.457047,-1.80368 0.723611,-2.47523 h -4.192649 c -0.262988,0.3337 -0.592617,1.16798 -0.912665,2.47523 h 4.381703"
         style="fill:#231f20;fill-opacity:1;fill-rule:nonzero;stroke:none;stroke-width:0.0140428"
         id="path1852" />
      <path
         d="m 17.886896,151.60984 c -0.07622,-0.68121 -0.143149,-1.38586 -0.199779,-2.11395 h -4.443911 c 0.06135,0.75153 0.133282,1.45204 0.211507,2.11395 h 4.432183"
         style="fill:#231f20;fill-opacity:1;fill-rule:nonzero;stroke:none;stroke-width:0.0140428"
         id="path1854" />
      <path
         d="m 18.910676,157.25531 c -0.186051,-0.64397 -0.357801,-1.37896 -0.517539,-2.21599 -0.171321,-0.89495 -0.319761,-1.87401 -0.446035,-2.91651 h -4.430039 c 0.300456,2.33459 0.690576,4.05277 1.054526,5.1325 h 4.339087"
         style="fill:#231f20;fill-opacity:1;fill-rule:nonzero;stroke:none;stroke-width:0.0140428"
         id="path1856" />
      <path
         d="m 14.761644,157.76829 c 0.124987,0.30337 0.244111,0.52814 0.351938,0.66466 h 4.192649 c -0.08209,-0.20685 -0.161454,-0.42886 -0.238391,-0.66466 h -4.306196"
         style="fill:#231f20;fill-opacity:1;fill-rule:nonzero;stroke:none;stroke-width:0.0140428"
         id="path1858" />
      <path
         d="m 31.028287,143.21609 c 0,7.74977 -2.587836,22.13374 -2.587836,22.13374 0,0 -7.282293,0 -8.101145,0 -2.237043,0 -4.050501,-9.90923 -4.050501,-22.13374 0,-12.22313 1.813458,-22.13237 4.050501,-22.13237 1.209973,0 8.101145,0 8.101145,0 0,0 2.587836,16.51999 2.587836,22.13237"
         style="fill:#ffffff;fill-opacity:1;fill-rule:nonzero;stroke:none;stroke-width:0.0140428"
         id="path1860" />
      <path
         d="m 28.440451,121.08372 c 0,0 -6.891172,0 -8.101145,0 -2.237043,0 -4.050501,9.90924 -4.050501,22.13237 0,12.22451 1.813458,22.13374 4.050501,22.13374 0.818852,0 8.101145,0 8.101145,0 0,0 2.587836,-14.38397 2.587836,-22.13374 0,-5.61238 -2.587836,-22.13237 -2.587836,-22.13237 z m -1.180085,1.31829 c 0.57617,3.80043 2.400498,16.20144 2.400498,20.81408 0,6.32254 -1.783857,17.32529 -2.378047,20.81545 h -6.741158 c -1.023351,-1.03698 -2.885431,-8.08762 -2.885431,-20.81545 0,-12.72646 1.86208,-19.7771 2.885431,-20.81408 h 6.718707 v 0"
         style="fill:#231f20;fill-opacity:1;fill-rule:nonzero;stroke:none;stroke-width:0.0140428"
         id="path1862" />
      <path
         d="m 32.490952,143.21609 c 0,12.22451 -1.813459,22.13374 -4.050501,22.13374 -2.237043,0 -4.050501,-9.90923 -4.050501,-22.13374 0,-12.22313 1.813458,-22.13237 4.050501,-22.13237 2.237042,0 4.050501,9.90924 4.050501,22.13237"
         style="fill:#231f20;fill-opacity:1;fill-rule:nonzero;stroke:none;stroke-width:0.0140428"
         id="path1864" />
      <path
         d="m 19.368009,126.73885 c -0.103536,0.48816 -0.205643,1.0163 -0.304316,1.58719 h 5.685059 c 0.05749,-0.35577 0.116264,-0.70465 0.178185,-1.0425 0.03389,-0.18616 0.06879,-0.36542 0.103679,-0.54469 h -5.662607"
         style="fill:#231f20;fill-opacity:1;fill-rule:nonzero;stroke:none;stroke-width:0.0140428"
         id="path1866" />
      <path
         d="m 25.171191,126.04661 c 0.281007,-1.32104 0.589042,-2.43111 0.932828,-3.33571 h -5.404767 c -0.339067,0.45092 -0.763795,1.57478 -1.176511,3.33571 h 5.64845"
         style="fill:#231f20;fill-opacity:1;fill-rule:nonzero;stroke:none;stroke-width:0.0140428"
         id="path1868" />
      <path
         d="m 24.274258,154.52772 c -0.0981,-0.91839 -0.184335,-1.86849 -0.257411,-2.84894 h -5.728533 c 0.07894,1.01354 0.171607,1.95813 0.27257,2.84894 h 5.713374"
         style="fill:#231f20;fill-opacity:1;fill-rule:nonzero;stroke:none;stroke-width:0.0140428"
         id="path1870" />
      <path
         d="m 25.59406,162.13546 c -0.239821,-0.86874 -0.461194,-1.85884 -0.667123,-2.98545 -0.220801,-1.20659 -0.412143,-2.52626 -0.575027,-3.93143 h -5.7108 c 0.387403,3.1468 0.890355,5.46208 1.359558,6.91688 h 5.593392"
         style="fill:#231f20;fill-opacity:1;fill-rule:nonzero;stroke:none;stroke-width:0.0140428"
         id="path1872" />
      <path
         d="m 20.245637,162.8277 c 0.161025,0.4068 0.314613,0.71017 0.453615,0.89495 h 5.404767 c -0.105824,-0.27855 -0.208073,-0.57778 -0.30732,-0.89495 h -5.551062"
         style="fill:#231f20;fill-opacity:1;fill-rule:nonzero;stroke:none;stroke-width:0.0140428"
         id="path1874" />
      <path
         d="m 109.35795,143.21609 c 0,4.66365 1.55733,13.3194 1.55733,13.3194 0,0 4.38228,0 4.87493,0 1.34626,0 2.43754,-5.96263 2.43754,-13.3194 0,-7.35539 -1.09128,-13.31803 -2.43754,-13.31803 -0.72804,0 -4.87493,0 -4.87493,0 0,0 -1.55733,9.94095 -1.55733,13.31803"
         style="fill:#ffffff;fill-opacity:1;fill-rule:nonzero;stroke:none;stroke-width:0.0140428"
         id="path1876" />
      <path
         d="m 115.79021,129.89806 c -0.72804,0 -4.87493,0 -4.87493,0 0,0 -1.55733,9.94095 -1.55733,13.31803 0,4.66365 1.55733,13.3194 1.55733,13.3194 0,0 4.38228,0 4.87493,0 1.34626,0 2.43754,-5.96263 2.43754,-13.3194 0,-7.35539 -1.09128,-13.31803 -2.43754,-13.31803 z m -0.41586,1.31829 c 0.58046,1.04249 1.48597,5.1518 1.48597,11.99974 0,6.84931 -0.90551,10.95862 -1.48597,12.00111 h -3.29943 c -0.41,-2.45593 -1.34955,-8.46683 -1.34955,-12.00111 0,-2.58142 0.96972,-9.32042 1.37114,-11.99974 h 3.27784 v 0"
         style="fill:#231f20;fill-opacity:1;fill-rule:nonzero;stroke:none;stroke-width:0.0140428"
         id="path1878" />
      <path
         d="m 108.47789,143.21609 c 0,7.35677 1.09113,13.3194 2.43739,13.3194 1.34626,0 2.43754,-5.96263 2.43754,-13.3194 0,-7.35539 -1.09128,-13.31803 -2.43754,-13.31803 -1.34626,0 -2.43739,5.96264 -2.43739,13.31803"
         style="fill:#231f20;fill-opacity:1;fill-rule:nonzero;stroke:none;stroke-width:0.0140428"
         id="path1880" />
      <path
         d="m 115.69969,133.93428 c 0.0623,0.27442 0.1237,0.57227 0.18319,0.89357 h -3.42113 c -0.0346,-0.19995 -0.0699,-0.39714 -0.10726,-0.58744 -0.0204,-0.1048 -0.0413,-0.20546 -0.0623,-0.30613 h 3.40755"
         style="fill:#231f20;fill-opacity:1;fill-rule:nonzero;stroke:none;stroke-width:0.0140428"
         id="path1882" />
      <path
         d="m 112.20748,133.54404 c -0.16903,-0.74464 -0.35451,-1.36931 -0.5613,-1.87953 h 3.25239 c 0.20407,0.25511 0.45962,0.88667 0.70802,1.87953 h -3.39911"
         style="fill:#231f20;fill-opacity:1;fill-rule:nonzero;stroke:none;stroke-width:0.0140428"
         id="path1884" />
      <path
         d="m 112.74733,149.58828 c 0.0589,-0.51711 0.11083,-1.05215 0.15488,-1.60512 h 3.4473 c -0.0476,0.57089 -0.1034,1.10317 -0.16417,1.60512 h -3.43801"
         style="fill:#231f20;fill-opacity:1;fill-rule:nonzero;stroke:none;stroke-width:0.0140428"
         id="path1886" />
      <path
         d="m 111.95307,153.8741 c 0.1443,-0.48954 0.27744,-1.04664 0.40142,-1.68234 0.13286,-0.67845 0.24812,-1.42309 0.34608,-2.21462 h 3.43643 c -0.2331,1.77335 -0.5357,3.07785 -0.81799,3.89696 h -3.36594"
         style="fill:#231f20;fill-opacity:1;fill-rule:nonzero;stroke:none;stroke-width:0.0140428"
         id="path1888" />
      <path
         d="m 115.17157,154.26434 c -0.097,0.22891 -0.18934,0.3999 -0.273,0.50332 h -3.25239 c 0.0636,-0.1572 0.12513,-0.32543 0.18491,-0.50332 h 3.34048"
         style="fill:#231f20;fill-opacity:1;fill-rule:nonzero;stroke:none;stroke-width:0.0140428"
         id="path1890" />
      <path
         d="m 102.79483,143.21609 c 0,6.01228 2.00737,17.16947 2.00737,17.16947 0,0 5.64917,0 6.2844,0 1.73538,0 3.14213,-7.68634 3.14213,-17.16947 0,-9.48176 -1.40675,-17.16948 -3.14213,-17.16948 -0.93869,0 -6.2844,0 -6.2844,0 0,0 -2.00737,12.81609 -2.00737,17.16948"
         style="fill:#ffffff;fill-opacity:1;fill-rule:nonzero;stroke:none;stroke-width:0.0140428"
         id="path1892" />
      <path
         d="m 111.0866,126.04661 c -0.93855,0 -6.2844,0 -6.2844,0 0,0 -2.00737,12.81609 -2.00737,17.16948 0,6.01228 2.00737,17.16947 2.00737,17.16947 0,0 5.64917,0 6.2844,0 1.73538,0 3.14213,-7.68634 3.14213,-17.16947 0,-9.48176 -1.40675,-17.16948 -3.14213,-17.16948 z m -0.31032,1.31967 c 0.76508,1.07008 2.08502,6.53767 2.08502,15.84981 0,9.31214 -1.31994,14.7811 -2.08502,15.85118 h -4.81544 c -0.49623,-2.93995 -1.79859,-11.10893 -1.79859,-15.85118 0,-3.46258 1.3374,-12.6451 1.82061,-15.84981 h 4.79342 v 0"
         style="fill:#231f20;fill-opacity:1;fill-rule:nonzero;stroke:none;stroke-width:0.0140428"
         id="path1894" />
      <path
         d="m 101.66008,143.21609 c 0,9.48313 1.40689,17.16947 3.14212,17.16947 1.73552,0 3.14228,-7.68634 3.14228,-17.16947 0,-9.48176 -1.40676,-17.16948 -3.14228,-17.16948 -1.73523,0 -3.14212,7.68772 -3.14212,17.16948"
         style="fill:#231f20;fill-opacity:1;fill-rule:nonzero;stroke:none;stroke-width:0.0140428"
         id="path1896" />
      <path
         d="m 111.16497,130.98882 c 0.0804,0.36267 0.15945,0.75429 0.2361,1.17763 h -4.41016 c -0.0445,-0.26338 -0.0902,-0.52262 -0.13814,-0.77359 -0.0263,-0.1379 -0.0533,-0.27166 -0.0804,-0.40404 h 4.39257"
         style="fill:#231f20;fill-opacity:1;fill-rule:nonzero;stroke:none;stroke-width:0.0140428"
         id="path1898" />
      <path
         d="m 106.66328,130.47584 c -0.21808,-0.98182 -0.45704,-1.80368 -0.7236,-2.47523 h 4.19264 c 0.26299,0.3337 0.59248,1.16798 0.91252,2.47523 h -4.38156"
         style="fill:#231f20;fill-opacity:1;fill-rule:nonzero;stroke:none;stroke-width:0.0140428"
         id="path1900" />
      <path
         d="m 107.35901,151.60984 c 0.0762,-0.68121 0.14315,-1.38586 0.19978,-2.11395 h 4.44391 c -0.0614,0.75153 -0.13328,1.45204 -0.21165,2.11395 h -4.43204"
         style="fill:#231f20;fill-opacity:1;fill-rule:nonzero;stroke:none;stroke-width:0.0140428"
         id="path1902" />
      <path
         d="m 106.33523,157.25531 c 0.18591,-0.64397 0.35766,-1.37896 0.51754,-2.21599 0.17132,-0.89495 0.31976,-1.87401 0.44604,-2.91651 h 4.43003 c -0.30045,2.33459 -0.69057,4.05277 -1.05467,5.1325 h -4.33894"
         style="fill:#231f20;fill-opacity:1;fill-rule:nonzero;stroke:none;stroke-width:0.0140428"
         id="path1904" />
      <path
         d="m 110.48412,157.76829 c -0.12485,0.30337 -0.24411,0.52814 -0.3518,0.66466 h -4.19264 c 0.0821,-0.20685 0.16131,-0.42886 0.23839,-0.66466 h 4.30605"
         style="fill:#231f20;fill-opacity:1;fill-rule:nonzero;stroke:none;stroke-width:0.0140428"
         id="path1906" />
      <path
         d="m 94.217618,143.21609 c 0,7.74977 2.587837,22.13374 2.587837,22.13374 0,0 7.282295,0 8.101005,0 2.23718,0 4.05064,-9.90923 4.05064,-22.13374 0,-12.22313 -1.81346,-22.13237 -4.05064,-22.13237 -1.20983,0 -8.101005,0 -8.101005,0 0,0 -2.587837,16.51999 -2.587837,22.13237"
         style="fill:#ffffff;fill-opacity:1;fill-rule:nonzero;stroke:none;stroke-width:0.0140428"
         id="path1908" />
      <path
         d="m 104.90646,121.08372 c -1.20983,0 -8.101005,0 -8.101005,0 0,0 -2.587837,16.51999 -2.587837,22.13237 0,7.74977 2.587837,22.13374 2.587837,22.13374 0,0 7.282295,0 8.101005,0 2.23718,0 4.05064,-9.90923 4.05064,-22.13374 0,-12.22313 -1.81346,-22.13237 -4.05064,-22.13237 z m -0.20221,1.31829 c 1.02335,1.03698 2.88543,8.08762 2.88543,20.81408 0,12.72783 -1.86208,19.77847 -2.88543,20.81545 h -6.741306 c -0.594189,-3.48878 -2.378046,-14.49153 -2.378046,-20.81545 0,-4.61126 1.824471,-17.01365 2.400641,-20.81408 h 6.718711 v 0"
         style="fill:#231f20;fill-opacity:1;fill-rule:nonzero;stroke:none;stroke-width:0.0140428"
         id="path1910" />
      <path
         d="m 92.754811,143.21609 c 0,12.22451 1.813457,22.13374 4.050644,22.13374 2.237041,0 4.050505,-9.90923 4.050505,-22.13374 0,-12.22313 -1.813464,-22.13237 -4.050505,-22.13237 -2.237187,0 -4.050644,9.90924 -4.050644,22.13237"
         style="fill:#231f20;fill-opacity:1;fill-rule:nonzero;stroke:none;stroke-width:0.0140428"
         id="path1912" />
      <path
         d="m 105.87775,126.73885 c 0.10368,0.48816 0.20565,1.0163 0.30446,1.58719 h -5.6852 c -0.0573,-0.35577 -0.11626,-0.70465 -0.17804,-1.0425 -0.034,-0.18616 -0.0688,-0.36542 -0.10368,-0.54469 h 5.66246"
         style="fill:#231f20;fill-opacity:1;fill-rule:nonzero;stroke:none;stroke-width:0.0140428"
         id="path1914" />
      <path
         d="m 100.07457,126.04661 c -0.281006,-1.32104 -0.58904,-2.43111 -0.932685,-3.33571 h 5.404625 c 0.33907,0.45092 0.76394,1.57478 1.17651,3.33571 h -5.64845"
         style="fill:#231f20;fill-opacity:1;fill-rule:nonzero;stroke:none;stroke-width:0.0140428"
         id="path1916" />
      <path
         d="m 100.97165,154.52772 c 0.0981,-0.91839 0.18433,-1.86849 0.25741,-2.84894 h 5.72853 c -0.0791,1.01354 -0.17175,1.95813 -0.27271,2.84894 h -5.71323"
         style="fill:#231f20;fill-opacity:1;fill-rule:nonzero;stroke:none;stroke-width:0.0140428"
         id="path1918" />
      <path
         d="m 99.651846,162.13546 c 0.239676,-0.86874 0.461044,-1.85884 0.667124,-2.98545 0.22066,-1.20659 0.41214,-2.52626 0.57488,-3.93143 h 5.7108 c -0.3874,3.1468 -0.89021,5.46208 -1.35941,6.91688 h -5.593394"
         style="fill:#231f20;fill-opacity:1;fill-rule:nonzero;stroke:none;stroke-width:0.0140428"
         id="path1920" />
      <path
         d="m 105.00027,162.8277 c -0.16103,0.4068 -0.31476,0.71017 -0.45376,0.89495 h -5.404625 c 0.105826,-0.27855 0.207931,-0.57778 0.30732,-0.89495 h 5.551065"
         style="fill:#231f20;fill-opacity:1;fill-rule:nonzero;stroke:none;stroke-width:0.0140428"
         id="path1922" />
      <path
         d="M 96.805455,146.14638 H 28.440451 v -5.85921 h 68.365004 v 5.85921"
         style="fill:#ffffff;fill-opacity:1;fill-rule:nonzero;stroke:none;stroke-width:0.0140428"
         id="path1924" />
      <path
         d="M 96.805455,140.28717 H 28.440451 v 5.85921 h 68.365004 z m -1.367423,1.31829 v 3.22126 H 29.807874 v -3.22126 h 65.630158 v 0"
         style="fill:#231f20;fill-opacity:1;fill-rule:nonzero;stroke:none;stroke-width:0.0140428"
         id="path1926" />
      <path
         d="m 86.593112,114.34197 c -7.99003,0 -15.980202,0 -23.970231,0 -7.990029,0 -15.980059,0 -23.970088,0 -1.487977,4.80707 -3.015996,12.11833 -2.08374,20.89681 0.920529,8.66955 3.816257,14.78111 4.44534,16.07458 3.940959,8.10555 9.31927,13.05602 12.363581,15.80706 3.447302,3.11369 6.708696,5.33383 9.168542,6.83138 0.02417,-0.0138 0.05205,-0.0303 0.07636,-0.0441 0.02445,0.0138 0.05234,0.0303 0.07651,0.0441 2.459846,-1.49755 5.721097,-3.71769 9.168541,-6.83138 3.044312,-2.75104 8.422623,-7.70151 12.363582,-15.80706 0.628938,-1.29347 3.524813,-7.40503 4.445342,-16.07458 0.932111,-8.77848 -0.595766,-16.08974 -2.083742,-20.89681"
         style="fill:#231f20;fill-opacity:1;fill-rule:nonzero;stroke:none;stroke-width:0.0140428"
         id="path1928" />
      <path
         d="M 85.504122,115.73748 H 39.741354 c -1.837627,6.37357 -2.420376,12.8809 -1.73266,19.35927 0.82729,7.78976 3.293856,13.52211 4.315634,15.62503 3.903491,8.02695 9.19843,12.8092 12.042819,15.37958 2.538212,2.29322 5.299801,4.38235 8.218552,6.21637 l 0.03733,-0.0207 0.03718,0.0207 c 2.918894,-1.83402 5.68034,-3.92315 8.218552,-6.21637 2.844389,-2.57038 8.139471,-7.35263 12.04239,-15.37958 1.022347,-2.10292 3.488918,-7.83527 4.316062,-15.62503 0.687858,-6.47699 0.104683,-12.98432 -1.733089,-19.35927 z m -0.364951,0.46196 c 1.745245,6.20947 2.290956,12.54994 1.621972,18.85043 -0.819994,7.72219 -3.261536,13.39525 -4.273303,15.47472 -3.863593,7.94697 -9.114629,12.6906 -11.936279,15.24031 -2.444258,2.20772 -5.103025,4.22928 -7.906228,6.0109 l -0.02231,-0.0124 -0.02245,0.0124 c -2.803203,-1.78162 -5.46197,-3.80318 -7.9068,-6.01228 -2.821078,-2.54833 -8.071972,-7.29196 -11.935993,-15.23755 -1.011767,-2.08223 -3.453308,-7.75667 -4.273018,-15.4761 -0.669125,-6.30325 -0.123558,-12.64372 1.621544,-18.85043 h 45.032866 v 0"
         style="fill:#ffffff;fill-opacity:1;fill-rule:nonzero;stroke:none;stroke-width:0.0140428"
         id="path1930" />
      <path
         d="m 44.657184,127.18564 h 6.847269 l -0.367525,1.6451 h -2.259209 l -1.518866,6.88379 h -2.384052 l 1.518723,-6.88379 h -2.190995 l 0.354655,-1.6451"
         style="fill:#ffffff;fill-opacity:1;fill-rule:nonzero;stroke:none;stroke-width:0.0140428"
         id="path1932" />
      <path
         d="m 54.448231,128.74662 -0.416863,1.99261 h 0.840447 c 0.547855,0 0.970867,-0.0979 1.269463,-0.29096 0.299169,-0.19444 0.44861,-0.46747 0.44861,-0.81911 0,-0.29234 -0.102821,-0.51297 -0.308178,-0.66052 -0.205356,-0.14755 -0.509673,-0.22202 -0.912092,-0.22202 z m -1.947885,-1.56098 h 3.336187 c 1.053811,0 1.846636,0.17651 2.377617,0.5309 0.531267,0.35439 0.797115,0.88116 0.797115,1.58167 0,0.62881 -0.212078,1.13075 -0.635089,1.50721 -0.423584,0.37507 -1.023208,0.59433 -1.799015,0.65363 0.240679,0.14341 0.427301,0.31302 0.560011,0.50745 0.132996,0.19444 0.238963,0.47713 0.317616,0.84945 l 0.653823,2.89858 h -2.321987 l -0.622362,-2.74276 c -0.05835,-0.23994 -0.164743,-0.40818 -0.320763,-0.5047 -0.155447,-0.0952 -0.401418,-0.14341 -0.737195,-0.14341 H 53.68272 l -0.740485,3.39087 h -2.315839 l 1.87395,-8.52889"
         style="fill:#ffffff;fill-opacity:1;fill-rule:nonzero;stroke:none;stroke-width:0.0140428"
         id="path1934" />
      <path
         d="m 64.787133,128.85418 -1.960612,3.43362 h 2.384196 z m -1.182373,-1.66854 h 2.931622 l 1.425484,8.52889 h -2.346585 l -0.23024,-1.81886 h -3.467179 l -1.058102,1.81886 h -2.483584 l 5.228584,-8.52889"
         style="fill:#ffffff;fill-opacity:1;fill-rule:nonzero;stroke:none;stroke-width:0.0140428"
         id="path1936" />
      <path
         d="m 70.539119,127.18564 h 2.359313 l -1.886249,8.52889 h -2.359312 l 1.886248,-8.52889"
         style="fill:#ffffff;fill-opacity:1;fill-rule:nonzero;stroke:none;stroke-width:0.0140428"
         id="path1938" />
      <path
         d="m 74.696875,127.18564 h 2.906739 l 1.375574,4.32718 c 0.124844,0.38474 0.219943,0.71431 0.286441,0.9901 0.06636,0.27717 0.113976,0.54055 0.143149,0.7929 h 0.105968 c 0.01659,-0.2358 0.04948,-0.4978 0.09939,-0.786 0.04991,-0.28821 0.118266,-0.62468 0.205499,-1.00941 l 0.946271,-4.31477 h 2.153384 l -1.88582,8.52889 h -2.907025 l -1.505996,-4.77122 c -0.07079,-0.21649 -0.130994,-0.43713 -0.180903,-0.66328 -0.04948,-0.22615 -0.08709,-0.46333 -0.111687,-0.71154 h -0.09381 c -0.04133,0.31164 -0.08466,0.6095 -0.130422,0.89081 -0.04576,0.28268 -0.09567,0.54745 -0.149298,0.79566 l -0.977589,4.45957 h -2.165968 l 1.886106,-8.52889"
         style="fill:#ffffff;fill-opacity:1;fill-rule:nonzero;stroke:none;stroke-width:0.0140428"
         id="path1940" />
      <path
         d="m 46.496813,137.8988 h 2.409078 l -0.703303,3.20471 h 2.738421 l 0.716031,-3.20471 h 2.40865 l -1.873521,8.52889 h -2.421378 l 0.803265,-3.61288 h -2.751149 l -0.790537,3.61288 h -2.409078 l 1.873521,-8.52889"
         style="fill:#ffffff;fill-opacity:1;fill-rule:nonzero;stroke:none;stroke-width:0.0140428"
         id="path1942" />
      <path
         d="m 59.599163,139.56735 -1.960755,3.43362 h 2.384195 z m -1.182517,-1.66855 h 2.931623 l 1.425483,8.52889 H 60.42731 l -0.230382,-1.81885 h -3.46718 l -1.058101,1.81885 h -2.483585 l 5.228584,-8.52889"
         style="fill:#ffffff;fill-opacity:1;fill-rule:nonzero;stroke:none;stroke-width:0.0140428"
         id="path1944" />
      <path
         d="m 67.261851,139.45979 -0.416862,1.9926 h 0.840303 c 0.547856,0 0.97101,-0.0979 1.269607,-0.29234 0.299169,-0.19305 0.448467,-0.46609 0.448467,-0.81772 0,-0.29234 -0.102679,-0.51298 -0.308178,-0.66191 -0.205357,-0.14754 -0.50953,-0.22063 -0.911949,-0.22063 z m -1.948027,-1.56099 h 3.336329 c 1.053811,0 1.846636,0.17651 2.377475,0.5309 0.53141,0.3544 0.797115,0.88116 0.797115,1.58168 0,0.6288 -0.212078,1.13075 -0.63509,1.5072 -0.42344,0.37508 -1.023064,0.59434 -1.799015,0.65363 0.240822,0.14341 0.427302,0.31303 0.560155,0.50746 0.132852,0.19443 0.23882,0.47712 0.317473,0.84944 l 0.653823,2.89858 h -2.321845 l -0.622362,-2.74276 c -0.05849,-0.23994 -0.164886,-0.40817 -0.320905,-0.5047 -0.155447,-0.0951 -0.401275,-0.14341 -0.737196,-0.14341 h -0.42344 l -0.740629,3.39087 h -2.315838 l 1.87395,-8.52889"
         style="fill:#ffffff;fill-opacity:1;fill-rule:nonzero;stroke:none;stroke-width:0.0140428"
         id="path1946" />
      <path
         d="m 75.845499,139.54391 -1.151341,5.19731 h 0.995893 c 0.52283,0 0.961429,-0.0565 1.316656,-0.17099 0.354798,-0.11446 0.662833,-0.29786 0.924248,-0.54883 0.319475,-0.30889 0.567161,-0.67569 0.743917,-1.10179 0.176183,-0.4261 0.264275,-0.86737 0.264275,-1.32381 0,-0.65225 -0.190913,-1.15695 -0.572453,-1.51548 -0.381969,-0.35853 -0.925678,-0.53641 -1.63084,-0.53641 z m -2.053995,-1.64511 h 2.94435 c 1.556048,0 2.713967,0.31027 3.473329,0.9308 0.759361,0.62054 1.139042,1.56651 1.139042,2.83791 0,0.73223 -0.131851,1.41068 -0.395268,2.03259 -0.263703,0.62192 -0.635948,1.13351 -1.117449,1.53341 -0.493657,0.41645 -1.072545,0.71844 -1.736379,0.90874 -0.664262,0.19029 -1.491981,0.28544 -2.484013,0.28544 h -3.697133 l 1.873521,-8.52889"
         style="fill:#ffffff;fill-opacity:1;fill-rule:nonzero;stroke:none;stroke-width:0.0140428"
         id="path1948" />
      <path
         d="m 44.710382,129.42094 v 0.85358 l 13.484319,-0.42748 z"
         style="fill:#231f20;fill-opacity:1;fill-rule:nonzero;stroke:none;stroke-width:0.0140428"
         id="path1950" />
      <path
         d="m 41.456568,130.94469 v 0.8522 l 13.484461,-0.4261 z"
         style="fill:#231f20;fill-opacity:1;fill-rule:nonzero;stroke:none;stroke-width:0.0140428"
         id="path1952" />
      <path
         d="m 82.075697,132.98004 v 0.8522 l -19.452673,-0.4261 z"
         style="fill:#231f20;fill-opacity:1;fill-rule:nonzero;stroke:none;stroke-width:0.0140428"
         id="path1954" />
      <path
         d="m 84.552558,131.79689 v 0.85358 l -14.356224,-0.42748 z"
         style="fill:#231f20;fill-opacity:1;fill-rule:nonzero;stroke:none;stroke-width:0.0140428"
         id="path1956" />
      <path
         d="m 45.435137,139.61837 v -0.85358 l 24.158141,0.42748 z"
         style="fill:#231f20;fill-opacity:1;fill-rule:nonzero;stroke:none;stroke-width:0.0140428"
         id="path1958" />
      <path
         d="m 42.962135,140.76153 v -0.8522 l 17.828982,0.4261 z"
         style="fill:#231f20;fill-opacity:1;fill-rule:nonzero;stroke:none;stroke-width:0.0140428"
         id="path1960" />
      <path
         d="m 82.075697,143.72079 v 0.8522 l -13.484319,-0.4261 z"
         style="fill:#231f20;fill-opacity:1;fill-rule:nonzero;stroke:none;stroke-width:0.0140428"
         id="path1962" />
      <path
         d="m 44.366167,148.95809 c 1.529592,-0.0745 3.059041,-0.10618 4.588632,-0.16134 l 4.588633,-0.091 c 3.059041,-0.0607 6.118224,-0.069 9.177265,-0.0772 3.059041,0.007 6.118224,0.0152 9.177265,0.0758 l 4.588632,0.091 c 1.529449,0.0552 3.059041,0.0869 4.58849,0.16272 -1.529449,0.0745 -3.059041,0.10618 -4.58849,0.16134 l -4.588632,0.0924 c -3.059041,0.0593 -6.118224,0.0676 -9.177265,0.0758 -3.059041,-0.008 -6.118224,-0.0179 -9.177265,-0.0772 l -4.588633,-0.0924 c -1.529591,-0.0538 -3.05904,-0.0855 -4.588632,-0.15996"
         style="fill:#ffffff;fill-opacity:1;fill-rule:nonzero;stroke:none;stroke-width:0.0140428"
         id="path1964" />
      <path
         d="m 44.366167,124.4415 c 1.529592,-0.0745 3.059041,-0.10618 4.588632,-0.16134 l 4.588633,-0.091 c 3.059041,-0.0607 6.118224,-0.069 9.177265,-0.0772 3.059041,0.007 6.118224,0.0165 9.177265,0.0758 l 4.588632,0.0924 c 1.529449,0.0538 3.059041,0.0869 4.58849,0.16134 -1.529449,0.0745 -3.059041,0.10618 -4.58849,0.16134 l -4.588632,0.0924 c -3.059041,0.0593 -6.118224,0.0676 -9.177265,0.0758 -3.059041,-0.008 -6.118224,-0.0165 -9.177265,-0.0772 l -4.588633,-0.0924 c -1.529591,-0.0538 -3.05904,-0.0855 -4.588632,-0.15996"
         style="fill:#ffffff;fill-opacity:1;fill-rule:nonzero;stroke:none;stroke-width:0.0140428"
         id="path1966" />
      <path
         d="m 62.720697,152.83436 1.81017,3.53566 4.047354,0.56813 -2.928762,2.75241 0.691434,3.8873 -3.620196,-1.8354 -3.620196,1.8354 0.691434,-3.8873 -2.928905,-2.75241 4.047641,-0.56813 1.810026,-3.53566"
         style="fill:#ffffff;fill-opacity:1;fill-rule:nonzero;stroke:none;stroke-width:0.0140428"
         id="path1968" />
    </g>
    <g
       aria-label="ARNOLD FITNESS"
       id="text3025"
       style="font-size:22.5778px;stroke:#ffffff;stroke-width:0.264583"
       inkscape:label="text3025">
      <path
         d="m 83.197361,87.593323 5.892806,-16.414061 h 3.160892 l 5.892806,16.414061 h -3.341514 l -4.064004,-12.21459 -0.180623,-0.835379 -0.2032,0.880534 -1.919113,5.847651 -0.270934,0.451556 0.338667,-0.04516 h 1.715913 q 0.654756,0 1.095024,0.372534 0.451556,0.372533 0.722489,0.914401 0.282223,0.541867 0.440267,1.038578 h -4.899382 l -1.196624,3.589871 z"
         style="font-weight:bold;font-family:'Expletus Sans';-inkscape-font-specification:'Expletus Sans Bold'"
         id="path361" />
      <path
         d="M 100.69516,87.593323 V 71.382462 q 1.2192,-0.2032 2.06587,-0.316089 0.84667,-0.112889 1.55787,-0.158045 0.7112,-0.04516 1.524,-0.04516 1.77235,0 3.23991,0.598312 1.46756,0.587023 2.3368,1.715913 0.88054,1.12889 0.88054,2.720625 0,1.33209 -0.62089,2.336802 -0.6096,1.004712 -1.61431,1.614313 l -0.63218,0.248356 0.49671,0.248356 q 0.68862,0.587023 1.07244,1.388534 0.38383,0.790223 0.64347,1.738491 0.27094,0.948268 0.56445,1.998135 0.29351,1.038579 0.79022,2.122314 h -3.31894 q -0.39511,-0.869246 -0.65475,-1.840091 -0.24836,-0.970845 -0.49671,-1.907824 -0.24836,-0.936979 -0.62089,-1.727202 -0.37254,-0.790223 -1.00472,-1.275646 -0.47413,0.03387 -1.016,0 -0.53058,-0.03387 -1.10631,-0.2032 0.16933,-0.428978 0.42898,-0.891823 0.25964,-0.462845 0.63218,-0.801512 0.37253,-0.338667 0.88053,-0.383823 0.62089,-0.05644 1.12889,-0.4064 0.51929,-0.361245 0.82409,-0.936979 0.3048,-0.587023 0.3048,-1.320801 0,-0.778934 -0.41769,-1.388535 -0.41769,-0.620889 -1.12889,-0.970845 -0.7112,-0.349956 -1.59173,-0.349956 -0.6096,0 -0.94827,0.03387 -0.33867,0.03387 -0.94827,0.1016 v 14.26917 z"
         style="font-weight:bold;font-family:'Expletus Sans';-inkscape-font-specification:'Expletus Sans Bold'"
         id="path363" />
      <path
         d="M 116.38673,87.593323 V 71.179262 h 3.11574 l 6.93138,11.040544 0.31609,0.903112 -0.0451,-0.903112 V 71.179262 h 2.8448 v 16.414061 h -2.8448 l -7.24748,-11.492101 -0.36124,-0.812801 0.0452,0.767646 v 11.537256 z"
         style="font-weight:bold;font-family:'Expletus Sans';-inkscape-font-specification:'Expletus Sans Bold'"
         id="path365" />
      <path
         d="m 140.97395,87.909412 q -2.60773,0 -4.43653,-1.117601 -1.81752,-1.12889 -2.77707,-3.059292 -0.95956,-1.930402 -0.95956,-4.357516 0,-1.772357 0.54187,-3.318936 0.55315,-1.54658 1.60302,-2.720625 1.04987,-1.174046 2.56258,-1.828802 1.524,-0.666045 3.46569,-0.666045 2.21263,0 3.75921,0.756356 1.55787,0.756356 2.52871,2.009424 0.97085,1.253068 1.41111,2.765781 0.45156,1.501424 0.45156,3.002847 0,1.659469 -0.54187,3.194759 -0.53058,1.524002 -1.56915,2.731914 -1.03858,1.207912 -2.56258,1.907824 -1.51272,0.699912 -3.47699,0.699912 z m 0,-2.325514 q 1.24178,0 2.32552,-0.722489 1.08373,-0.733779 1.74978,-2.122313 0.66604,-1.388535 0.66604,-3.364093 0,-1.772357 -0.56444,-3.172181 -0.56445,-1.411112 -1.6256,-2.223913 -1.06116,-0.812801 -2.5513,-0.812801 -1.55786,0 -2.61902,0.857957 -1.04987,0.857956 -1.59174,2.269068 -0.53057,1.411113 -0.53057,3.08187 0,1.162757 0.3048,2.280358 0.3048,1.106312 0.89182,1.998136 0.59831,0.880534 1.49013,1.411112 0.89183,0.519289 2.05458,0.519289 z"
         style="font-weight:bold;font-family:'Expletus Sans';-inkscape-font-specification:'Expletus Sans Bold'"
         id="path367" />
      <path
         d="M 151.4952,87.593323 V 71.179262 h 3.2512 v 14.065969 h 5.91539 v 2.348092 z"
         style="font-weight:bold;font-family:'Expletus Sans';-inkscape-font-specification:'Expletus Sans Bold'"
         id="path369" />
      <path
         d="m 170.16705,87.864256 q -0.41769,0 -0.76765,-0.03387 -0.33867,-0.02258 -0.76764,-0.1016 -0.42898,-0.07902 -1.08374,-0.248356 0.18062,-0.395112 0.47413,-0.846668 0.3048,-0.451556 0.74507,-0.767645 0.44027,-0.327378 1.06116,-0.327378 0.0226,0 0.0451,0 0.0339,0 0.0452,0 1.27565,-0.02258 2.19005,-0.564445 0.9144,-0.541867 1.50142,-1.422402 0.59831,-0.891823 0.88053,-1.975557 0.28223,-1.095023 0.28223,-2.223914 0,-1.772357 -0.63218,-3.160892 -0.62089,-1.388534 -1.97556,-2.178757 -1.35467,-0.801512 -3.53342,-0.801512 -0.44027,0 -0.92569,0.04515 -0.48543,0.04516 -1.01601,0.135467 v 14.201437 h -3.18347 v -16.12055 q 1.51272,-0.327378 2.82223,-0.451556 1.3208,-0.135467 2.30294,-0.135467 3.00284,0 5.13644,1.004712 2.1449,0.993424 3.27379,2.889959 1.14017,1.896535 1.14017,4.572004 0,1.783647 -0.59831,3.330226 -0.59831,1.546579 -1.68204,2.709336 -1.08374,1.162757 -2.55129,1.817513 -1.45627,0.654756 -3.18347,0.654756 z"
         style="font-weight:bold;font-family:'Expletus Sans';-inkscape-font-specification:'Expletus Sans Bold'"
         id="path371" />
      <path
         d="M 186.1747,87.593323 V 71.179262 h 9.84392 v 2.325513 h -6.61529 v 14.088548 z m 4.08658,-7.473252 q 0.14676,-0.496712 0.41769,-1.02729 0.28222,-0.530579 0.73378,-0.891823 0.45156,-0.361245 1.10631,-0.361245 h 2.73192 v 2.280358 z"
         style="font-weight:bold;font-family:'Expletus Sans';-inkscape-font-specification:'Expletus Sans Bold'"
         id="path373" />
      <path
         d="M 199.36013,87.593323 V 71.179262 h 3.13831 v 16.414061 z"
         style="font-weight:bold;font-family:'Expletus Sans';-inkscape-font-specification:'Expletus Sans Bold'"
         id="path375" />
      <path
         d="M 208.79764,87.593323 V 73.504775 h -4.28978 v -2.325513 h 11.78561 v 2.325513 h -4.28978 v 14.088548 z"
         style="font-weight:bold;font-family:'Expletus Sans';-inkscape-font-specification:'Expletus Sans Bold'"
         id="path377" />
      <path
         d="M 218.57384,87.593323 V 71.179262 h 3.11574 l 6.93139,11.040544 0.31608,0.903112 -0.0452,-0.903112 V 71.179262 h 2.8448 v 16.414061 h -2.8448 l -7.24748,-11.492101 -0.36124,-0.812801 0.0452,0.767646 v 11.537256 z"
         style="font-weight:bold;font-family:'Expletus Sans';-inkscape-font-specification:'Expletus Sans Bold'"
         id="path379" />
      <path
         d="M 235.89101,87.593323 V 71.179262 h 9.84392 v 2.325513 h -6.6153 v 11.763034 h 6.97655 v 2.325514 z m 4.08658,-7.473252 q 0.14676,-0.496712 0.41769,-1.02729 0.28222,-0.530579 0.73378,-0.891823 0.45155,-0.361245 1.10631,-0.361245 h 2.73192 v 2.280358 z"
         style="font-weight:bold;font-family:'Expletus Sans';-inkscape-font-specification:'Expletus Sans Bold'"
         id="path381" />
      <path
         d="m 253.52425,87.886834 q -0.95956,0 -2.24649,-0.270933 -1.28693,-0.259645 -2.83351,-0.970846 l 0.85795,-2.099735 q 1.2192,0.575734 2.29165,0.801512 1.07244,0.214489 1.9304,0.214489 1.20791,0 1.98685,-0.632179 0.79022,-0.632178 0.79022,-1.512712 0,-0.82409 -0.55316,-1.411113 -0.55315,-0.598312 -1.4224,-1.083734 -0.86924,-0.496712 -1.85138,-1.004713 -0.98213,-0.508 -1.85138,-1.140178 -0.86924,-0.632179 -1.4224,-1.501424 -0.55315,-0.869246 -0.55315,-2.099736 0,-1.478846 0.67733,-2.427113 0.68862,-0.948268 1.81751,-1.399824 1.12889,-0.462845 2.47227,-0.462845 1.03858,0 2.02072,0.146756 0.98213,0.135467 2.40453,0.598312 l -0.83538,2.054579 q -0.99342,-0.293511 -1.81751,-0.417689 -0.82409,-0.124178 -1.56916,-0.124178 -1.016,0 -1.6256,0.496712 -0.6096,0.496712 -0.6096,1.264357 0,0.767645 0.55316,1.343379 0.56444,0.564445 1.43369,1.049868 0.88053,0.485422 1.86267,1.016001 0.98213,0.530578 1.85137,1.196623 0.88054,0.666045 1.4337,1.603024 0.56444,0.92569 0.56444,2.235202 0,1.456268 -0.72249,2.472269 -0.72249,1.004713 -2.02071,1.535291 -1.29823,0.530578 -3.01414,0.530578 z"
         style="font-weight:bold;font-family:'Expletus Sans';-inkscape-font-specification:'Expletus Sans Bold'"
         id="path383" />
      <path
         d="m 266.55164,87.886834 q -0.95956,0 -2.24649,-0.270933 -1.28694,-0.259645 -2.83351,-0.970846 l 0.85795,-2.099735 q 1.2192,0.575734 2.29165,0.801512 1.07244,0.214489 1.9304,0.214489 1.20791,0 1.98685,-0.632179 0.79022,-0.632178 0.79022,-1.512712 0,-0.82409 -0.55316,-1.411113 -0.55315,-0.598312 -1.4224,-1.083734 -0.86924,-0.496712 -1.85138,-1.004713 -0.98213,-0.508 -1.85138,-1.140178 -0.86924,-0.632179 -1.4224,-1.501424 -0.55315,-0.869246 -0.55315,-2.099736 0,-1.478846 0.67733,-2.427113 0.68862,-0.948268 1.81751,-1.399824 1.12889,-0.462845 2.47227,-0.462845 1.03858,0 2.02071,0.146756 0.98214,0.135467 2.40454,0.598312 l -0.83538,2.054579 q -0.99342,-0.293511 -1.81751,-0.417689 -0.82409,-0.124178 -1.56916,-0.124178 -1.016,0 -1.6256,0.496712 -0.6096,0.496712 -0.6096,1.264357 0,0.767645 0.55316,1.343379 0.56444,0.564445 1.43369,1.049868 0.88053,0.485422 1.86266,1.016001 0.98214,0.530578 1.85138,1.196623 0.88054,0.666045 1.43369,1.603024 0.56445,0.92569 0.56445,2.235202 0,1.456268 -0.72249,2.472269 -0.72249,1.004713 -2.02071,1.535291 -1.29823,0.530578 -3.01414,0.530578 z"
         style="font-weight:bold;font-family:'Expletus Sans';-inkscape-font-specification:'Expletus Sans Bold'"
         id="path385" />
    </g>
  </g>
</svg>
